<svg viewBox="0 0 20 14" fill="none" xmlns="http://www.w3.org/2000/svg">
  <path d="M13.6739 2.3249C13.6865 2.32477 13.6991 2.32474 13.7118 2.32482C13.8335 2.32558 14.0331 2.32558 14.3107 2.32482L16.5368 4.36441H16.9944V3.72034C16.9944 3.36463 17.2827 3.07627 17.6384 3.07627H18.7119C19.0676 3.07627 19.3559 3.36463 19.3559 3.72034V12.5226C19.3559 12.8783 19.0676 13.1667 18.7119 13.1667H17.6384C17.2827 13.1667 16.9944 12.8783 16.9944 12.5226V11.5565H15.9209V12.7373C15.9209 13.2116 15.5364 13.596 15.0621 13.596H6.34112C5.32454 12.611 4.68927 11.9935 4.43533 11.7437C4.42618 11.7347 4.22311 11.7382 4.03547 11.7343C3.96383 11.7328 3.77759 11.7343 3.75099 11.7343C3.74392 11.7343 3.48886 11.7437 3.22092 11.7437C3.18057 11.7437 3.08207 11.743 2.92541 11.7418C2.4538 11.7381 2.07345 11.3547 2.07345 10.8831V8.98023H1.42938V11.4492H0.355934V3.50565H1.42938V5.97458H2.07345V4.79379C2.07345 4.3195 2.45793 3.93503 2.93221 3.93503H4.32769V2.96893C4.32769 2.61322 4.61604 2.32486 4.97175 2.32486H8.08475V1.57345H5.61582V0.5H13.5593V1.57345H11.0904V2.32486H13.6667C13.6691 2.32486 13.6715 2.32487 13.6739 2.3249Z" fill="white"/>
  <path d="M14.3107 2.32482L16.5368 4.36441H16.9944V3.72034C16.9944 3.36463 17.2827 3.07627 17.6384 3.07627H18.7119C19.0676 3.07627 19.3559 3.36463 19.3559 3.72034V12.5226C19.3559 12.8783 19.0676 13.1667 18.7119 13.1667H17.6384C17.2827 13.1667 16.9944 12.8783 16.9944 12.5226V11.5565H15.9209V12.7373C15.9209 13.2116 15.5364 13.596 15.0621 13.596H6.34112L14.3107 2.32482Z" fill="#5C5B74"/>
</svg>
